<svg width="80" height="80" viewBox="0 0 80 80" fill="none" xmlns="http://www.w3.org/2000/svg">
<g id="facebook">
<path id="Vector" d="M79.6454 39.8227C79.6454 17.8231 61.8073 0 39.8227 0C17.8231 0 0 17.8231 0 39.8227C0 59.6942 14.5577 76.1708 33.6004 79.155V51.3364H23.4879V39.8252H33.6004V31.0468C33.6004 21.0687 39.5365 15.5582 48.6359 15.5582C52.994 15.5582 57.5562 16.3348 57.5562 16.3348V26.1336H52.5261C47.5881 26.1336 46.045 29.2074 46.045 32.3559V39.8227H57.0883L55.3137 51.3339H46.045V79.1525C65.0727 76.1683 79.6454 59.6917 79.6454 39.8202V39.8227Z" fill="white"/>
</g>
</svg>
